<?xml version="1.0" encoding="UTF-8" standalone="no"?>
<!-- Created with Inkscape (http://www.inkscape.org/) -->

<svg
   width="129.3mm"
   height="113.472mm"
   viewBox="0 0 129.3 113.472"
   version="1.1"
   id="svg5"
   xml:space="preserve"
   inkscape:version="1.2.1 (9c6d41e410, 2022-07-14)"
   sodipodi:docname="structure.svg"
   inkscape:export-filename="structure.png"
   inkscape:export-xdpi="96"
   inkscape:export-ydpi="96"
   xmlns:inkscape="http://www.inkscape.org/namespaces/inkscape"
   xmlns:sodipodi="http://sodipodi.sourceforge.net/DTD/sodipodi-0.dtd"
   xmlns="http://www.w3.org/2000/svg"
   xmlns:svg="http://www.w3.org/2000/svg"><sodipodi:namedview
     id="namedview7"
     pagecolor="#ffffff"
     bordercolor="#000000"
     borderopacity="0.25"
     inkscape:showpageshadow="2"
     inkscape:pageopacity="0.0"
     inkscape:pagecheckerboard="0"
     inkscape:deskcolor="#d1d1d1"
     inkscape:document-units="mm"
     showgrid="false"
     inkscape:zoom="1.829812"
     inkscape:cx="134.71329"
     inkscape:cy="221.33421"
     inkscape:window-width="2560"
     inkscape:window-height="1316"
     inkscape:window-x="-12"
     inkscape:window-y="-12"
     inkscape:window-maximized="1"
     inkscape:current-layer="layer1" /><defs
     id="defs2"><rect
       x="-216.41568"
       y="66.673516"
       width="145.91663"
       height="96.731249"
       id="rect1211" /></defs><g
     inkscape:label="图层 1"
     inkscape:groupmode="layer"
     id="layer1"
     transform="translate(-57.548858,-31.956726)"><g
       id="g154"
       transform="matrix(0.01755711,0,0,0.02241487,86.054082,123.73425)"
       style="fill:#338000"><path
         d="m 71.253333,581.97333 v 128 A 45.226667,45.226667 0 0 0 116.48,755.2 h 791.04 a 45.226667,45.226667 0 0 0 45.22667,-45.22667 v -128 z M 263.25333,703.14667 a 35.413333,35.413333 0 1 1 35.41334,-35.41334 35.413333,35.413333 0 0 1 -35.41334,35.41334 z m 475.73334,-14.08 h -286.72 a 21.333335,21.333335 0 1 1 0,-42.66667 h 286.72 a 21.333335,21.333335 0 0 1 0,42.66667 z M 748.8,270.93333 H 275.2 L 71.253333,557.22667 H 952.74667 Z M 512,484.26667 c -80.64,0 -133.12,-42.66667 -120.32,-87.89334 10.66667,-36.69333 63.57333,-61.86666 120.32,-61.86666 56.74667,0 109.65333,25.17333 120.32,61.86666 12.8,44.37334 -39.68,87.89334 -120.32,87.89334 z"
         fill="#2c2c2c"
         p-id="9632"
         id="path142"
         style="fill:#338000" /><path
         d="m 572.58667,381.86667 a 26.88,26.88 0 0 0 -23.46667,0 L 498.77333,412.16 473.6,396.8 a 26.88,26.88 0 0 0 -24.32,0 c -7.25333,3.84 -8.53333,10.66667 -2.13333,14.93333 l 37.54666,25.17334 A 24.32,24.32 0 0 0 497.92,440.32 25.173333,25.173333 0 0 0 511.57333,436.90667 L 575.14667,394.24 c 5.54666,-2.56 4.69333,-10.24 -2.56,-12.37333 z"
         fill="#2c2c2c"
         p-id="9633"
         id="path144"
         style="fill:#338000" /></g><g
       id="g436"
       transform="matrix(0.02155612,0,0,0.02187882,84.422102,33.437776)"><path
         d="m 740.2,136.7 -1,502.5 c 0,5.4 -4,10 -9.3,10.7 l -641.4,90 C 82,740.8 76.1,735.7 76.2,729.1 L 77,226.6 c 0,-5.4 4,-10 9.3,-10.7 l 641.5,-90 c 6.6,-0.9 12.4,4.2 12.4,10.8 z"
         fill="#d9e8ff"
         p-id="10896"
         id="path364" /><path
         d="m 780.7,168.7 -1,502.5 c 0,5.4 -4,10 -9.3,10.7 l -641.4,90 c -6.5,0.9 -12.4,-4.2 -12.3,-10.8 l 0.9,-502.5 c 0,-5.4 4,-10 9.3,-10.7 l 641.5,-90 c 6.5,-0.9 12.3,4.2 12.3,10.8 z"
         fill="#cce0ff"
         p-id="10897"
         id="path366" /><path
         d="m 829.3,182.1 c 3.9,-0.5 7,2.4 7,6.6 l -1,536.8 c 0,4.2 -3.2,8 -7.1,8.6 l -660.7,90.6 c -3.9,0.5 -7,-2.4 -7,-6.6 l 1,-536.8 c 0,-4.2 3.2,-8 7.1,-8.6 z M 824,722.6 825,195 172.9,284.4 171.9,812 824,722.6"
         fill="#d5e1ff"
         p-id="10898"
         id="path368" /><path
         d="M 824.9,195 824,722.6 171.9,812 l 1,-527.6 z"
         fill="#bbd2ff"
         p-id="10899"
         id="path370" /><path
         d="m 871.9,248 -635.3,89.2 c -5.9,0.8 -10.8,6.8 -10.8,13.2 l -0.9,502.7 c 0,6.5 4.8,11 10.8,10.2 L 870.9,774 c 6,-0.8 10.9,-6.8 10.9,-13.2 l 0.9,-502.7 c 0.1,-6.4 -4.8,-10.9 -10.8,-10.1 z M 244,841.6 244.6,506.5 h -0.1 l 618.9,-87 -0.6,335.1 z m 619.4,-434.4 -618.8,87 v -0.1 l 0.3,-137.5 618.8,-87 -0.3,137.5 z"
         fill="#2e465c"
         p-id="10900"
         id="path372" /><path
         d="m 666.2,366 c 0.1,-0.6 0.3,-1.1 0.5,-1.7 0,-0.1 0.1,-0.2 0.1,-0.3 0.3,-0.7 0.6,-1.3 0.9,-2 0.1,-0.2 0.2,-0.3 0.3,-0.5 0.3,-0.5 0.7,-1 1,-1.5 0.1,-0.1 0.2,-0.3 0.3,-0.4 0.5,-0.6 1,-1.1 1.6,-1.6 l 0.3,-0.3 c 0.5,-0.4 0.9,-0.7 1.4,-1 0.3,-0.2 0.6,-0.3 0.9,-0.5 0.3,-0.2 0.7,-0.3 1,-0.5 1,-0.4 2,-0.8 3.1,-0.9 1.1,-0.1 2.1,-0.1 3,0 0.2,0 0.4,0.1 0.6,0.1 1,0.2 1.9,0.5 2.8,1 l -11.1,-6.1 c -0.1,-0.1 -0.2,-0.1 -0.4,-0.2 -0.6,-0.3 -1.2,-0.5 -1.9,-0.7 -0.2,0 -0.3,0 -0.5,-0.1 -0.2,0 -0.4,-0.1 -0.6,-0.1 -1,-0.1 -2,-0.2 -3,0 -1.1,0.2 -2.1,0.5 -3.1,0.9 -0.1,0.1 -0.3,0.1 -0.4,0.1 -0.2,0.1 -0.4,0.3 -0.7,0.4 -0.3,0.2 -0.6,0.3 -0.9,0.5 -0.1,0.1 -0.3,0.2 -0.4,0.2 -0.3,0.2 -0.7,0.5 -1,0.8 l -0.3,0.3 -0.1,0.1 -1.2,1.2 c -0.1,0.1 -0.1,0.2 -0.2,0.3 -0.1,0.1 -0.2,0.3 -0.3,0.4 -0.2,0.2 -0.4,0.4 -0.5,0.7 -0.2,0.3 -0.4,0.6 -0.5,0.9 -0.1,0.2 -0.2,0.3 -0.3,0.5 0,0.1 -0.1,0.2 -0.1,0.2 -0.3,0.6 -0.5,1.1 -0.8,1.7 0,0.1 -0.1,0.2 -0.1,0.3 -0.2,0.5 -0.3,1.1 -0.4,1.6 -0.1,0.3 -0.2,0.6 -0.2,0.9 -0.2,0.9 -0.2,1.7 -0.2,2.6 0,2.3 0.5,4.4 1.5,6.2 1,1.7 2.4,3.1 4,4.1 l 11.1,6.1 c -3.4,-1.8 -5.6,-5.6 -5.6,-10.2 0,-0.9 0.1,-1.8 0.2,-2.6 0,-0.3 0.1,-0.6 0.2,-0.9 z"
         fill="#ff7777"
         p-id="10901"
         id="path374" /><path
         d="m 677.7,354.8 c 6.6,-0.9 12,4.1 12,11.3 0,7.2 -5.4,13.7 -12,14.7 -6.7,0.9 -12,-4.1 -12,-11.3 0.1,-7.2 5.4,-13.7 12,-14.7 z"
         fill="#ffdcdc"
         p-id="10902"
         id="path376" /><path
         d="m 731.1,357.6 c 0.1,-0.6 0.3,-1.2 0.5,-1.7 0,-0.1 0.1,-0.2 0.1,-0.3 0.3,-0.7 0.6,-1.3 0.9,-2 0.1,-0.2 0.2,-0.3 0.3,-0.5 0.3,-0.5 0.7,-1 1,-1.5 0.1,-0.1 0.2,-0.3 0.3,-0.4 0.5,-0.6 1,-1.1 1.6,-1.6 l 0.3,-0.3 c 0.5,-0.4 0.9,-0.7 1.4,-1 0.3,-0.2 0.6,-0.3 0.9,-0.5 0.3,-0.2 0.7,-0.3 1,-0.5 1,-0.4 2,-0.8 3.1,-0.9 1.1,-0.1 2.1,-0.1 3.1,0 0.2,0 0.4,0.1 0.6,0.1 1,0.2 1.9,0.5 2.8,1 l -11.1,-6.1 c -0.1,-0.1 -0.2,-0.1 -0.4,-0.2 -0.6,-0.3 -1.2,-0.5 -1.9,-0.7 -0.2,0 -0.3,0 -0.5,-0.1 -0.2,0 -0.4,-0.1 -0.6,-0.1 -1,-0.1 -2,-0.2 -3.1,0 -1.1,0.2 -2.1,0.5 -3.1,0.9 -0.1,0.1 -0.3,0.1 -0.4,0.1 -0.2,0.1 -0.4,0.3 -0.7,0.4 -0.3,0.2 -0.6,0.3 -0.9,0.5 -0.1,0.1 -0.3,0.2 -0.4,0.2 -0.3,0.2 -0.7,0.5 -1,0.8 l -0.3,0.3 -0.1,0.1 -1.2,1.2 c -0.1,0.1 -0.1,0.2 -0.2,0.3 -0.1,0.1 -0.2,0.3 -0.3,0.4 -0.2,0.2 -0.4,0.4 -0.5,0.7 -0.2,0.3 -0.4,0.6 -0.5,0.9 -0.1,0.2 -0.2,0.3 -0.3,0.5 0,0.1 -0.1,0.2 -0.1,0.2 -0.3,0.5 -0.5,1.1 -0.8,1.7 0,0.1 -0.1,0.2 -0.1,0.3 -0.2,0.5 -0.3,1 -0.4,1.6 l -0.3,0.9 c -0.2,0.9 -0.2,1.7 -0.2,2.6 0,4.6 2.2,8.3 5.6,10.2 l 11.1,6.1 c -3.4,-1.8 -5.6,-5.6 -5.6,-10.2 0,-0.9 0.1,-1.8 0.2,-2.6 0,-0.2 0.1,-0.5 0.2,-0.8 z"
         fill="#ff7777"
         p-id="10903"
         id="path378" /><path
         d="m 742.6,346.4 c 6.7,-0.9 12,4.1 12,11.3 0,7.1 -5.4,13.7 -12.1,14.6 -6.6,0.9 -12,-4.1 -12,-11.3 0.1,-7.1 5.5,-13.7 12.1,-14.6 z"
         fill="#ffdcdc"
         p-id="10904"
         id="path380" /><path
         d="m 808.2,339.9 c 0,-0.1 0,-0.1 0,0 l -11.1,-6.1 c -0.1,-0.1 -0.2,-0.1 -0.4,-0.2 -0.6,-0.3 -1.2,-0.5 -1.9,-0.7 -0.2,0 -0.3,0 -0.5,-0.1 -0.2,0 -0.4,-0.1 -0.6,-0.1 -1,-0.1 -2,-0.2 -3,0 -1.1,0.2 -2.1,0.5 -3.1,0.9 -0.1,0.1 -0.3,0.1 -0.4,0.1 -0.2,0.1 -0.4,0.3 -0.7,0.4 -0.3,0.2 -0.6,0.3 -0.9,0.5 -0.1,0.1 -0.3,0.2 -0.4,0.2 -0.3,0.2 -0.7,0.5 -1,0.8 l -0.3,0.3 -0.1,0.1 -1.2,1.2 c -0.1,0.1 -0.1,0.2 -0.2,0.3 -0.1,0.1 -0.2,0.3 -0.3,0.4 -0.2,0.2 -0.4,0.4 -0.5,0.7 -0.2,0.3 -0.4,0.6 -0.5,0.9 -0.1,0.2 -0.2,0.3 -0.3,0.5 0,0.1 -0.1,0.2 -0.1,0.2 -0.3,0.6 -0.5,1.1 -0.8,1.7 0,0.1 -0.1,0.2 -0.1,0.3 -0.2,0.5 -0.3,1.1 -0.5,1.6 -0.1,0.3 -0.2,0.6 -0.2,0.8 -0.2,0.9 -0.2,1.7 -0.2,2.6 0,4.6 2.2,8.4 5.6,10.2 l 11.1,6.1 c -3.4,-1.8 -5.6,-5.6 -5.6,-10.2 0,-0.9 0.1,-1.8 0.2,-2.6 0.1,-0.3 0.2,-0.5 0.2,-0.8 0.1,-0.6 0.3,-1.1 0.5,-1.7 0,-0.1 0.1,-0.2 0.1,-0.2 0.3,-0.7 0.6,-1.3 0.9,-2 0.1,-0.2 0.2,-0.3 0.3,-0.5 0.3,-0.5 0.7,-1 1,-1.5 0.1,-0.1 0.2,-0.3 0.3,-0.4 0.5,-0.6 1,-1.1 1.6,-1.6 l 0.3,-0.3 c 0.5,-0.4 0.9,-0.7 1.4,-1 0.3,-0.2 0.6,-0.3 0.9,-0.5 0.3,-0.2 0.7,-0.3 1,-0.5 1,-0.4 2,-0.8 3.1,-0.9 1.1,-0.1 2.1,-0.1 3,0 0.2,0 0.4,0.1 0.6,0.1 1,0.2 1.9,0.5 2.8,1 z"
         fill="#33d333"
         p-id="10905"
         id="path382" /><path
         d="m 801.8,338.7 c 6.6,-0.9 12,4.1 12,11.3 0,7.2 -5.4,13.7 -12,14.7 -6.7,0.9 -12,-4.1 -12,-11.3 0,-7.2 5.4,-13.7 12,-14.7 z"
         fill="#88ff8b"
         p-id="10906"
         id="path384" /><path
         d="m 436.6,653 -15.2,-8.3 59.8,23.9 15.1,8.2 z"
         fill="#ffafaf"
         p-id="10907"
         id="path386" /><path
         d="m 402.9,674.4 -15.1,-8.2 V 632.7 L 403,641 Z"
         fill="#ff7777"
         p-id="10908"
         id="path388" /><path
         d="m 403,641 -15.2,-8.3 93.6,-65.4 15.1,8.3 z"
         fill="#ffafaf"
         p-id="10909"
         id="path390" /><path
         d="m 496.5,575.6 v 36.7 l -59.9,40.7 59.7,23.8 v 36.7 L 402.9,674.4 403,641 Z"
         fill="#ffdcdc"
         p-id="10910"
         id="path392" /><path
         d="m 536.1,723.9 -15.1,-6.6 47.1,-184 15.2,6.6 z"
         fill="#ff7777"
         p-id="10911"
         id="path394" /><path
         d="m 583.3,539.9 -15.2,-6.6 27.9,-3.1 15.2,6.6 z"
         fill="#ffafaf"
         p-id="10912"
         id="path396" /><path
         d="m 611.2,536.8 -47.2,184 -27.9,3.1 47.2,-184 z"
         fill="#ffdcdc"
         p-id="10913"
         id="path398" /><path
         d="m 645.7,691.1 -15.1,-8.3 0.1,-36.7 15.1,8.2 z"
         fill="#ff7777"
         p-id="10914"
         id="path400" /><path
         d="m 645.8,654.3 -15.1,-8.2 60.5,-40.8 15.2,8.3 z m 0.2,-101.2 -15.2,-8.2 93.4,39.1 15.1,8.3 z"
         fill="#ffafaf"
         p-id="10915"
         id="path402" /><path
         d="m 645.9,589.8 -15.1,-8.2 v -36.7 l 15.2,8.2 z"
         fill="#ff7777"
         p-id="10916"
         id="path404" /><path
         d="m 646,553.1 93.3,39.2 v 33.4 l -93.6,65.4 0.1,-36.8 60.6,-40.7 -60.5,-23.8 z"
         fill="#ffdcdc"
         p-id="10917"
         id="path406" /></g><rect
       style="opacity:0.3;fill:#0000ff;fill-opacity:0.6;stroke:#000080;stroke-width:0.793314;stroke-dasharray:none;paint-order:stroke fill markers"
       id="rect492"
       width="52.996983"
       height="17.715576"
       x="68.528854"
       y="65.35997" /><text
       xml:space="preserve"
       style="font-style:normal;font-variant:normal;font-weight:bold;font-stretch:condensed;font-size:3.52778px;font-family:Arial;-inkscape-font-specification:'Arial, Bold Condensed';font-variant-ligatures:normal;font-variant-caps:normal;font-variant-numeric:normal;font-variant-east-asian:normal;opacity:1;fill:#000000;fill-opacity:0.6;stroke:none;stroke-width:0.579001;stroke-dasharray:none;paint-order:stroke fill markers"
       x="85.194817"
       y="71.325836"
       id="text1158"><tspan
         sodipodi:role="line"
         id="tspan1156"
         style="font-style:normal;font-variant:normal;font-weight:bold;font-stretch:condensed;font-size:3.52778px;font-family:Arial;-inkscape-font-specification:'Arial, Bold Condensed';font-variant-ligatures:normal;font-variant-caps:normal;font-variant-numeric:normal;font-variant-east-asian:normal;fill:#000000;stroke:none;stroke-width:0.579"
         x="85.194817"
         y="71.325836">sand-openapi</tspan></text><rect
       style="opacity:0.36;fill:#ff00ff;fill-opacity:0.6;stroke:#000080;stroke-width:0.406263;stroke-dasharray:none;paint-order:stroke fill markers"
       id="rect1102"
       width="24.609449"
       height="10.005256"
       x="82.216537"
       y="65.311043" /><text
       xml:space="preserve"
       style="font-style:normal;font-variant:normal;font-weight:bold;font-stretch:normal;font-size:3.52777px;font-family:Arial;-inkscape-font-specification:'Arial, Bold';font-variant-ligatures:normal;font-variant-caps:normal;font-variant-numeric:normal;font-variant-east-asian:normal;opacity:1;fill:#000000;fill-opacity:0.6;stroke:none;stroke-width:0.579001;stroke-dasharray:none;paint-order:stroke fill markers"
       x="110.2099"
       y="81.73674"
       id="text1265"><tspan
         sodipodi:role="line"
         id="tspan1263"
         style="font-style:normal;font-variant:normal;font-weight:bold;font-stretch:normal;font-size:3.52777px;font-family:Arial;-inkscape-font-specification:'Arial, Bold';font-variant-ligatures:normal;font-variant-caps:normal;font-variant-numeric:normal;font-variant-east-asian:normal;fill:#000000;stroke:none;stroke-width:0.579"
         x="110.2099"
         y="81.73674">OFBiz</tspan></text><text
       xml:space="preserve"
       style="font-style:normal;font-variant:normal;font-weight:bold;font-stretch:condensed;font-size:3.52778px;font-family:Arial;-inkscape-font-specification:'Arial, Bold Condensed';font-variant-ligatures:normal;font-variant-caps:normal;font-variant-numeric:normal;font-variant-east-asian:normal;fill:#000000;fill-opacity:0.6;stroke:none;stroke-width:0.579001;stroke-dasharray:none;paint-order:stroke fill markers"
       x="68.406082"
       y="101.04481"
       id="text1158-1"><tspan
         sodipodi:role="line"
         id="tspan1156-0"
         style="font-style:normal;font-variant:normal;font-weight:bold;font-stretch:condensed;font-size:3.52778px;font-family:Arial;-inkscape-font-specification:'Arial, Bold Condensed';font-variant-ligatures:normal;font-variant-caps:normal;font-variant-numeric:normal;font-variant-east-asian:normal;fill:#000000;stroke:none;stroke-width:0.579"
         x="68.406082"
         y="101.04481">solr/snapshot</tspan></text><text
       xml:space="preserve"
       style="font-style:normal;font-variant:normal;font-weight:bold;font-stretch:condensed;font-size:3.52778px;font-family:Arial;-inkscape-font-specification:'Arial, Bold Condensed';font-variant-ligatures:normal;font-variant-caps:normal;font-variant-numeric:normal;font-variant-east-asian:normal;fill:#000000;fill-opacity:0.6;stroke:none;stroke-width:0.579001;stroke-dasharray:none;paint-order:stroke fill markers"
       x="102.86842"
       y="100.7361"
       id="text1158-1-8"><tspan
         sodipodi:role="line"
         style="font-style:normal;font-variant:normal;font-weight:bold;font-stretch:condensed;font-size:3.52778px;font-family:Arial;-inkscape-font-specification:'Arial, Bold Condensed';font-variant-ligatures:normal;font-variant-caps:normal;font-variant-numeric:normal;font-variant-east-asian:normal;fill:#000000;stroke:none;stroke-width:0.579"
         x="102.86842"
         y="100.7361"
         id="tspan449">commons-vfs</tspan></text><rect
       style="opacity:0.36;fill:#ff00ff;fill-opacity:0.6;stroke:#000080;stroke-width:0.381075;stroke-dasharray:none;paint-order:stroke fill markers"
       id="rect1102-8"
       width="21.598124"
       height="10.030444"
       x="67.288841"
       y="95.114914" /><text
       xml:space="preserve"
       style="font-style:normal;font-variant:normal;font-weight:bold;font-stretch:condensed;font-size:3.52778px;font-family:Arial;-inkscape-font-specification:'Arial, Bold Condensed';font-variant-ligatures:normal;font-variant-caps:normal;font-variant-numeric:normal;font-variant-east-asian:normal;fill:#000000;fill-opacity:0.6;stroke:none;stroke-width:0.579001;stroke-dasharray:none;paint-order:stroke fill markers"
       x="71.430061"
       y="119.33975"
       id="text1158-1-81"><tspan
         sodipodi:role="line"
         id="tspan1156-0-2"
         style="font-style:normal;font-variant:normal;font-weight:bold;font-stretch:condensed;font-size:3.52778px;font-family:Arial;-inkscape-font-specification:'Arial, Bold Condensed';font-variant-ligatures:normal;font-variant-caps:normal;font-variant-numeric:normal;font-variant-east-asian:normal;fill:#000000;stroke:none;stroke-width:0.579"
         x="71.430061"
         y="119.33975">ActiveMQ</tspan></text><rect
       style="opacity:0.36;fill:#ff00ff;fill-opacity:0.6;stroke:#000080;stroke-width:0.381075;stroke-dasharray:none;paint-order:stroke fill markers"
       id="rect1102-8-8"
       width="21.598124"
       height="10.030444"
       x="67.137817"
       y="113.40985" /><rect
       style="opacity:0.36;fill:#ff00ff;fill-opacity:0.6;stroke:#000080;stroke-width:0.381075;stroke-dasharray:none;paint-order:stroke fill markers"
       id="rect1102-8-7"
       width="21.598124"
       height="10.030444"
       x="101.73936"
       y="95.114914" /><path
       style="fill:#00ff00;fill-rule:evenodd;stroke:#0000ff;stroke-width:0.264583px;stroke-linecap:butt;stroke-linejoin:miter;stroke-opacity:1"
       d="m 88.375936,54.023544 v 9.977117"
       id="path1572"
       inkscape:connector-type="polyline"
       inkscape:connector-curvature="0" /><path
       style="fill:none;fill-rule:evenodd;stroke:#ff0000;stroke-width:0.264583px;stroke-linecap:butt;stroke-linejoin:miter;stroke-opacity:1"
       d="m 100.52199,53.878948 v 9.977117"
       id="path1574"
       inkscape:connector-type="polyline"
       inkscape:connector-curvature="0" /><path
       style="fill:none;fill-rule:evenodd;stroke:#0000ff;stroke-width:0.296413px;stroke-linecap:butt;stroke-linejoin:miter;stroke-opacity:1"
       d="M 88.070867,74.511464 82.029596,96.047221"
       id="path1576"
       inkscape:connector-type="polyline"
       inkscape:connector-curvature="0" /><path
       style="fill:none;fill-rule:evenodd;stroke:#0000ff;stroke-width:0.334797px;stroke-linecap:butt;stroke-linejoin:miter;stroke-opacity:1"
       d="M 99.2153,74.364406 96.133144,128.21653"
       id="path1576-7"
       inkscape:connector-type="polyline"
       inkscape:connector-curvature="0" /><path
       style="fill:none;fill-rule:evenodd;stroke:#aa4400;stroke-width:0.201252px;stroke-linecap:butt;stroke-linejoin:miter;stroke-opacity:1"
       d="M 91.435328,74.204601 85.362706,96.064916"
       id="path1580"
       inkscape:connector-type="polyline"
       inkscape:connector-curvature="0" /><path
       style="fill:none;fill-rule:evenodd;stroke:#ff0000;stroke-width:0.239643px;stroke-linecap:butt;stroke-linejoin:miter;stroke-opacity:1"
       d="m 101.68647,74.139872 7.93739,21.700557"
       id="path1584"
       inkscape:connector-type="polyline"
       inkscape:connector-curvature="0" /><path
       style="fill:none;fill-rule:evenodd;stroke:#ff0000;stroke-width:0.337016px;stroke-linecap:butt;stroke-linejoin:miter;stroke-opacity:1"
       d="M 109.11114,104.4555 96.901406,128.56866"
       id="path1586"
       inkscape:connector-type="polyline"
       inkscape:connector-curvature="0" /><path
       style="fill:none;fill-rule:evenodd;stroke:#ff00ff;stroke-width:0.288218px;stroke-linecap:butt;stroke-linejoin:miter;stroke-opacity:1"
       d="M 87.710316,118.15706 103.73807,104.45619"
       id="path1588"
       inkscape:connector-type="polyline"
       inkscape:connector-curvature="0" /><path
       style="fill:none;fill-rule:evenodd;stroke:#ff00ff;stroke-width:0.230877px;stroke-linecap:butt;stroke-linejoin:miter;stroke-opacity:1"
       d="M 88.271143,96.516003 94.642059,74.398424"
       id="path1588-3"
       inkscape:connector-type="polyline"
       inkscape:connector-curvature="0" /><text
       xml:space="preserve"
       style="font-style:normal;font-variant:normal;font-weight:bold;font-stretch:normal;font-size:3.52777px;font-family:Arial;-inkscape-font-specification:'Arial, Bold';font-variant-ligatures:normal;font-variant-caps:normal;font-variant-numeric:normal;font-variant-east-asian:normal;opacity:1;fill:#000000;fill-opacity:0.6;stroke:none;stroke-width:0.579001;stroke-dasharray:none;paint-order:stroke fill markers"
       x="105.19553"
       y="46.024605"
       id="text1594"><tspan
         sodipodi:role="line"
         id="tspan1592"
         style="font-style:normal;font-variant:normal;font-weight:bold;font-stretch:normal;font-size:3.52777px;font-family:Arial;-inkscape-font-specification:'Arial, Bold';font-variant-ligatures:normal;font-variant-caps:normal;font-variant-numeric:normal;font-variant-east-asian:normal;fill:#000000;stroke:none;stroke-width:0.579"
         x="105.19553"
         y="46.024605">Swagger-UI</tspan></text><text
       xml:space="preserve"
       style="font-style:normal;font-variant:normal;font-weight:bold;font-stretch:normal;font-size:3.52777px;font-family:Arial;-inkscape-font-specification:'Arial, Bold';font-variant-ligatures:normal;font-variant-caps:normal;font-variant-numeric:normal;font-variant-east-asian:normal;fill:#000000;fill-opacity:0.6;stroke:none;stroke-width:0.579001;stroke-dasharray:none;paint-order:stroke fill markers"
       x="105.19553"
       y="49.790451"
       id="text1594-2"><tspan
         sodipodi:role="line"
         id="tspan1592-0"
         style="font-style:normal;font-variant:normal;font-weight:bold;font-stretch:normal;font-size:3.52777px;font-family:Arial;-inkscape-font-specification:'Arial, Bold';font-variant-ligatures:normal;font-variant-caps:normal;font-variant-numeric:normal;font-variant-east-asian:normal;fill:#000000;stroke:none;stroke-width:0.579"
         x="105.19553"
         y="49.790451">Swagger-Editor</tspan></text><path
       style="fill:none;fill-rule:evenodd;stroke:#aa4400;stroke-width:0.264583px;stroke-linecap:butt;stroke-linejoin:miter;stroke-opacity:1"
       d="m 140.10428,106.31806 h 9.97711"
       id="path3101"
       inkscape:connector-type="polyline"
       inkscape:connector-curvature="0" /><text
       xml:space="preserve"
       style="font-style:normal;font-variant:normal;font-weight:bold;font-stretch:normal;font-size:3.52777px;font-family:Arial;-inkscape-font-specification:'Arial, Bold';font-variant-ligatures:normal;font-variant-caps:normal;font-variant-numeric:normal;font-variant-east-asian:normal;opacity:1;fill:#aa4400;fill-opacity:0.6;stroke:none;stroke-width:0.579001;stroke-dasharray:none;paint-order:stroke fill markers"
       x="150.952"
       y="107.33023"
       id="text3208"><tspan
         sodipodi:role="line"
         id="tspan3206"
         style="font-style:normal;font-variant:normal;font-weight:bold;font-stretch:normal;font-size:3.52777px;font-family:Arial;-inkscape-font-specification:'Arial, Bold';font-variant-ligatures:normal;font-variant-caps:normal;font-variant-numeric:normal;font-variant-east-asian:normal;fill:#aa4400;stroke:none;stroke-width:0.579"
         x="150.952"
         y="107.33023">系统初始化</tspan></text><path
       style="fill:none;fill-rule:evenodd;stroke:#ff00ff;stroke-width:0.264583px;stroke-linecap:butt;stroke-linejoin:miter;stroke-opacity:1"
       d="m 140.49273,124.18338 h 9.97711"
       id="path3101-7"
       inkscape:connector-type="polyline"
       inkscape:connector-curvature="0" /><text
       xml:space="preserve"
       style="font-style:normal;font-variant:normal;font-weight:bold;font-stretch:normal;font-size:3.52777px;font-family:Arial;-inkscape-font-specification:'Arial, Bold';font-variant-ligatures:normal;font-variant-caps:normal;font-variant-numeric:normal;font-variant-east-asian:normal;fill:#ff00ff;fill-opacity:0.6;stroke:none;stroke-width:0.579001;stroke-dasharray:none;paint-order:stroke fill markers"
       x="151.34045"
       y="125.19553"
       id="text3208-0"><tspan
         sodipodi:role="line"
         id="tspan3206-9"
         style="font-style:normal;font-variant:normal;font-weight:bold;font-stretch:normal;font-size:3.52777px;font-family:Arial;-inkscape-font-specification:'Arial, Bold';font-variant-ligatures:normal;font-variant-caps:normal;font-variant-numeric:normal;font-variant-east-asian:normal;fill:#ff00ff;stroke:none;stroke-width:0.579"
         x="151.34045"
         y="125.19553">异步更新</tspan></text><path
       style="fill:none;fill-rule:evenodd;stroke:#ff0000;stroke-width:0.264583px;stroke-linecap:butt;stroke-linejoin:miter;stroke-opacity:1"
       d="m 140.34813,117.82116 h 9.97711"
       id="path3101-5"
       inkscape:connector-type="polyline"
       inkscape:connector-curvature="0" /><text
       xml:space="preserve"
       style="font-style:normal;font-variant:normal;font-weight:bold;font-stretch:normal;font-size:3.52777px;font-family:Arial;-inkscape-font-specification:'Arial, Bold';font-variant-ligatures:normal;font-variant-caps:normal;font-variant-numeric:normal;font-variant-east-asian:normal;fill:#ff0000;fill-opacity:0.6;stroke:none;stroke-width:0.579001;stroke-dasharray:none;paint-order:stroke fill markers"
       x="151.19585"
       y="118.83332"
       id="text3208-9"><tspan
         sodipodi:role="line"
         id="tspan3206-2"
         style="font-style:normal;font-variant:normal;font-weight:bold;font-stretch:normal;font-size:3.52777px;font-family:Arial;-inkscape-font-specification:'Arial, Bold';font-variant-ligatures:normal;font-variant-caps:normal;font-variant-numeric:normal;font-variant-east-asian:normal;fill:#ff0000;stroke:none;stroke-width:0.579"
         x="151.19585"
         y="118.83332">写文件</tspan></text><path
       style="fill:#0000ff;fill-rule:evenodd;stroke:#0000ff;stroke-width:0.264583px;stroke-linecap:butt;stroke-linejoin:miter;stroke-opacity:1"
       d="m 140.05893,111.74813 h 9.97711"
       id="path3101-51"
       inkscape:connector-type="polyline"
       inkscape:connector-curvature="0" /><text
       xml:space="preserve"
       style="font-style:normal;font-variant:normal;font-weight:bold;font-stretch:normal;font-size:3.52777px;font-family:Arial;-inkscape-font-specification:'Arial, Bold';font-variant-ligatures:normal;font-variant-caps:normal;font-variant-numeric:normal;font-variant-east-asian:normal;fill:#0000ff;fill-opacity:0.6;stroke:none;stroke-width:0.579001;stroke-dasharray:none;paint-order:stroke fill markers"
       x="150.90665"
       y="112.76027"
       id="text3208-4"><tspan
         sodipodi:role="line"
         id="tspan3206-0"
         style="font-style:normal;font-variant:normal;font-weight:bold;font-stretch:normal;font-size:3.52777px;font-family:Arial;-inkscape-font-specification:'Arial, Bold';font-variant-ligatures:normal;font-variant-caps:normal;font-variant-numeric:normal;font-variant-east-asian:normal;fill:#0000ff;stroke:none;stroke-width:0.579"
         x="150.90665"
         y="112.76027">读元数据和文件内容</tspan></text><path
       style="fill:none;fill-rule:evenodd;stroke:#aa4400;stroke-width:0.244217px;stroke-linecap:butt;stroke-linejoin:miter;stroke-opacity:1"
       d="m 85.240866,103.74332 7.948995,24.59186"
       id="path1580-7"
       inkscape:connector-type="polyline"
       inkscape:connector-curvature="0" /><path
       style="fill:none;fill-rule:evenodd;stroke:#ff00ff;stroke-width:0.37511px;stroke-linecap:butt;stroke-linejoin:miter;stroke-opacity:1"
       d="M 87.160422,114.38713 96.475756,74.457185"
       id="path1588-6"
       inkscape:connector-type="polyline"
       inkscape:connector-curvature="0" /><path
       style="fill:none;fill-rule:evenodd;stroke:#ff00ff;stroke-width:0.270777px;stroke-linecap:butt;stroke-linejoin:miter;stroke-opacity:1"
       d="M 95.095364,128.46198 87.384052,103.32733"
       id="path1588-7"
       inkscape:connector-type="polyline"
       inkscape:connector-curvature="0" /><text
       xml:space="preserve"
       transform="matrix(0.26458333,0,0,0.26458333,57.548858,31.956726)"
       id="text1209"
       style="font-weight:bold;font-stretch:condensed;font-size:13.3333px;font-family:Arial;-inkscape-font-specification:'Arial, Bold Condensed';white-space:pre;shape-inside:url(#rect1211);display:inline;fill:#338000;fill-opacity:0.6;stroke:#ff00ff;stroke-width:2.18835;paint-order:stroke fill markers" /></g></svg>
